<svg id="Capa_1" enable-background="new 0 0 512 512" height="512" viewBox="0 0 512 512" width="512" xmlns="http://www.w3.org/2000/svg"><g><path d="m365.749 365.749c-29.315 29.315-68.292 45.46-109.749 45.46s-80.434-16.145-109.749-45.46c-5.156-5.156-9.862-10.593-14.139-16.253h-56.807c8.925 9.24 21.405 22.047 21.405 22.047l31.346 60.226 66.96 11.237 60.755 30.313 60.781-30.253 66.94-11.235 31.455-60.152s12.562-12.899 21.519-22.183h-56.58c-4.275 5.66-8.981 11.097-14.137 16.253z"/><path d="m146.251 146.251c29.315-29.315 68.292-45.46 109.749-45.46s80.434 16.145 109.749 45.46c5.156 5.156 9.862 10.593 14.139 16.253h56.52c-8.925-9.24-21.405-22.047-21.405-22.047l-31.346-60.226-66.96-11.237-60.755-30.313-60.782 30.253-66.94 11.235-31.455 60.152s-12.562 12.899-21.519 22.183h56.867c4.276-5.66 8.982-11.097 14.138-16.253z"/><path d="m256 129.791c-33.711 0-65.405 13.128-89.243 36.966-49.208 49.209-49.208 129.277 0 178.486 23.838 23.838 55.531 36.966 89.243 36.966s65.405-13.128 89.243-36.966c49.208-49.209 49.208-129.277 0-178.486-23.838-23.838-55.532-36.966-89.243-36.966zm-19.718 187.636-51.598-51.599 21.213-21.213 30.385 30.386 69.821-69.821 21.213 21.213z"/><path d="m398.268 191.504c18.476 40.873 18.476 88.12 0 128.992h113.732l-19.665-64.496 19.665-64.496z"/><path d="m113.732 191.504h-113.732l18.699 64.496-18.699 64.496h113.732c-18.475-40.872-18.476-88.12 0-128.992z"/></g></svg>