<svg id="Layer_1" enable-background="new 0 0 100 100" viewBox="0 0 100 100" xmlns="http://www.w3.org/2000/svg"><path d="m90.8397141 82.3760147-.0044022.0729828c-.2873535 4.76371-3.5062256 8.833725-8.0648422 10.2460098-9.9567261 3.0846558-21.0600968 4.8049927-32.7677384 4.8049927-11.7050095 0-22.8050976-1.7221985-32.7626686-4.8043289-4.5600653-1.4114609-7.778986-5.4839706-8.0627346-10.2490387l-.0115795-.194458c-.1125708-1.5866318-.1800861-3.1845398-.1800861-4.7712402 0-3.5896988.2925882-7.1681366.8327084-10.7578354.5176611-3.24086 2.8470335-6.087822 5.9528627-7.2469101 3.364625-1.2940521 6.8530169-2.4644051 9.970109-4.2761154l7.5057087-4.1410828c1.6766815 0 3.1058273 1.1590881 3.4884605 2.7119331l8.3123817 18.2512245c.2769241.6080322 1.1798363.4587555 1.2463188-.2060547l1.0528374-10.5281258c-1.4178848-.517662-2.4531403-1.811779-2.4531403-3.3646965v-1.6879425c0-.9114876.2587967-1.5529175.7764587-2.2055397 1.4178162.3938293 2.9707298.6526222 4.3998795.6526222 1.4178848 0 2.9707985-.2587929 4.3998795-.6526222.5176582.6526222.7764549 1.429081.7764549 2.2055397v1.6879425c0 1.5529175-1.0352516 2.8470345-2.4644012 3.3646965l1.0528374 10.528141c.0664825.6648102.9693909.8140869 1.2463188.2060547l8.3124504-18.2512398c.3938255-1.552845 1.8117104-2.7119331 3.4996529-2.7119331l7.5057068 4.1410828c3.105835 1.8117104 6.605484 2.9820633 9.9701157 4.2761154 3.1058273 1.1590881 5.3001709 4.0060501 5.8178253 7.3707428.7764587 5.1763383 1.0352553 10.3526764.652626 15.5290833z"/><path d="m32.3572006 29.1399918c.5180779.5579128.8622704 1.2546577.989399 2.0053291 1.8800163 11.1010475 9.956501 17.2961311 16.7208443 17.2961311 6.7813644 0 14.8814774-6.2263031 16.7349167-17.2717972.1164551-.6939774.4078064-1.3550663.8805847-1.8762646.6159744-.6790695.8970947-2.3332596.8970947-4.1322441 0-2.105135.4808502-5.0770874-.4808426-5.9439087-.3606491-.2476654-.7212677-.2476654-1.3223343-.1238327-1.5627594-10.1541719-6.6116371-16.5934047-16.7094193-16.5934047s-15.1466712 6.4392328-16.7094268 16.5934067c-.601059-.2476635-1.0819054-.1238308-1.3223267.1238327-.9616909.8668213-.4808464 3.714941-.4808464 5.9439087-.0905247 1.6785583.1598129 3.2868938.8023567 3.9788437z"/></svg>